# xmcd
#
# Track frame offsets:
#	150
#	19879
#	39463
#	63693
#	81787
#	100510
#	115305
#	134593
#	151141
#	172641
#
# Disc length: 2533 seconds
#
# Revision: 1
# Processed by: cddbd v1.5.1PL0 Copyright (c) Steve Scherf et al.
# Submitted via: audiograbber 1.81.03
#
DISCID=7609e30a
DTITLE=Allison`Brown - Everything That Shined
DYEAR=2005
DGENRE=Country
TTITLE0=Saving Daylight
TTITLE1=Tear My Stillhouse Down
TTITLE2=Magpie
TTITLE3=Across the Great Divide
TTITLE4=It's A Blessing
TTITLE5=Fool About Money
TTITLE6=Hard Times Come Again No More
TTITLE7=Petition
TTITLE8=Thinking Tonight Of My Blue Eves
TTITLE9=Angel From Montgomery
EXTD=
EXTT0=
EXTT1=
EXTT2=
EXTT3=
EXTT4=
EXTT5=
EXTT6=
EXTT7=
EXTT8=
EXTT9=
PLAYORDER=
